<?xml version="1.0" standalone="no"?>
<!DOCTYPE svg PUBLIC "-//W3C//DTD SVG 20010904//EN"
 "http://www.w3.org/TR/2001/REC-SVG-20010904/DTD/svg10.dtd">
<svg version="1.0" xmlns="http://www.w3.org/2000/svg"
 width="264.000000pt" height="264.000000pt" viewBox="0 0 264.000000 264.000000"
 preserveAspectRatio="xMidYMid meet">
<metadata>
Created by potrace 1.11, written by Peter Selinger 2001-2013
</metadata>
<g transform="translate(0.000000,264.000000) scale(0.100000,-0.100000)"
fill="#000000" stroke="none">
<path d="M873 2262 c-114 -58 -221 -272 -236 -474 -6 -73 18 -118 62 -118 34
0 69 31 77 70 3 14 8 32 10 40 3 8 43 56 91 105 150 157 196 254 160 331 -28
59 -100 79 -164 46z"/>
<path d="M344 1960 c-48 -19 -58 -110 -39 -340 4 -58 9 -208 9 -335 2 -259 6
-279 74 -325 44 -31 120 -35 237 -14 163 30 199 50 229 125 16 39 29 121 29
182 1 44 12 31 25 -29 14 -70 42 -116 85 -139 59 -31 117 -1 136 72 6 22 9
154 8 308 -2 240 -4 274 -20 305 -27 50 -64 75 -113 74 -55 0 -91 -26 -117
-82 -19 -41 -21 -64 -20 -182 1 -122 0 -131 -11 -90 -7 25 -16 54 -21 65 -12
28 -53 65 -73 66 -96 8 -119 -26 -127 -197 -7 -163 -13 -205 -34 -234 -22 -30
-36 -25 -37 15 -3 77 -16 227 -25 295 -5 41 -12 89 -14 105 -39 298 -87 393
-181 355z"/>
<path d="M1312 1896 c-113 -78 -120 -198 -21 -342 50 -73 47 -94 -32 -253 -79
-160 -87 -204 -44 -246 13 -14 32 -26 42 -27 10 0 25 -2 33 -3 43 -4 119 63
199 179 69 101 80 130 77 207 -3 69 -17 103 -86 210 -47 73 -51 98 -15 100 77
4 106 33 98 98 -13 104 -150 146 -251 77z"/>
<path d="M1775 1922 c-16 -1 -49 -10 -73 -18 -55 -20 -73 -55 -78 -153 -4 -90
-12 -159 -28 -279 -3 -20 -8 -72 -11 -114 -4 -43 -8 -88 -10 -100 -11 -55 -8
-218 5 -247 31 -77 130 -71 162 9 6 14 12 81 15 149 l4 124 76 81 c132 142
167 210 167 330 0 53 -5 82 -20 111 -36 69 -126 116 -209 107z m69 -168 c7
-18 -14 -69 -44 -104 l-20 -25 5 50 c9 82 14 95 34 95 10 0 22 -7 25 -16z"/>
<path d="M2115 1722 c-59 -37 -98 -103 -203 -347 -80 -187 -95 -238 -96 -317
-1 -79 21 -118 76 -132 78 -20 147 53 184 193 21 79 22 81 65 87 19 3 47 9 63
14 43 15 43 15 61 -47 9 -32 34 -94 55 -139 40 -84 64 -104 110 -97 44 7 55
27 54 106 0 63 -10 102 -83 317 -93 273 -111 318 -146 350 -33 31 -101 37
-140 12z m96 -355 c-5 -4 -20 -5 -35 -1 -20 5 -25 11 -21 23 4 9 12 29 18 45
l10 29 18 -44 c9 -24 14 -48 10 -52z"/>
<path d="M655 741 c-93 -39 -137 -176 -85 -268 53 -95 163 -122 232 -58 28 26
38 23 33 -7 -4 -20 11 -25 17 -5 3 10 3 140 -1 158 0 3 -31 5 -68 5 -40 -1
-67 -5 -65 -11 2 -9 14 -11 92 -14 23 -1 26 -4 22 -35 -3 -22 -16 -46 -38 -67
-29 -28 -42 -34 -79 -33 -129 1 -191 171 -101 272 60 67 163 63 204 -8 19 -34
32 -39 32 -12 0 19 -41 62 -77 81 -25 13 -89 14 -118 2z"/>
<path d="M1238 743 c0 -4 -2 -86 -3 -180 -1 -129 1 -173 10 -173 9 0 12 39 12
145 0 80 3 148 5 151 3 3 32 -62 65 -143 34 -86 65 -149 74 -150 10 -2 32 42
73 147 33 82 62 150 65 150 3 0 5 -67 5 -150 -1 -118 2 -150 12 -150 10 0 13
37 13 175 l0 175 -24 0 c-14 0 -25 -4 -25 -9 0 -16 -113 -301 -119 -301 -3 0
-21 40 -40 88 -18 48 -39 101 -46 117 -6 17 -18 45 -25 63 -12 31 -48 62 -52
45z"/>
<path d="M1664 742 c-20 -3 -20 -9 -20 -177 l0 -175 70 -1 c92 -1 160 2 165 7
11 11 -14 14 -109 17 l-103 2 0 38 c1 20 2 53 2 72 l1 35 97 0 c74 0 94 3 85
12 -7 7 -44 11 -97 11 -94 0 -87 -6 -87 72 0 68 -7 64 97 63 61 -1 100 3 107
10 7 7 8 12 3 13 -36 2 -194 3 -211 1z"/>
<path d="M1964 740 c-28 -11 -64 -58 -64 -82 0 -57 63 -101 153 -107 63 -4 92
-73 49 -116 -13 -14 -27 -25 -31 -26 -77 -12 -124 6 -142 55 -7 20 -16 36 -20
36 -32 0 0 -73 43 -100 44 -27 108 -24 153 7 87 59 39 160 -82 177 -61 8 -95
34 -95 70 0 62 88 95 151 56 18 -12 35 -30 38 -41 6 -22 19 -25 26 -6 6 16
-15 45 -50 69 -29 19 -93 23 -129 8z"/>
<path d="M1013 723 c-3 -10 -32 -85 -64 -166 -33 -81 -59 -152 -59 -157 0 -6
7 -10 15 -10 8 0 15 6 15 12 0 7 8 32 17 55 15 36 22 42 53 45 19 2 57 1 84
-2 48 -5 49 -5 68 -57 11 -30 26 -53 34 -53 18 0 19 -4 -21 91 -19 46 -35 88
-35 94 0 5 -6 21 -13 35 -7 14 -22 49 -32 78 -20 54 -49 71 -62 35z m55 -85
c13 -35 26 -75 29 -89 5 -25 4 -25 -61 -25 -38 0 -66 5 -66 11 0 16 62 165 69
165 3 0 16 -28 29 -62z"/>
</g>
</svg>
